<?xml version="1.0" encoding="UTF-8" standalone="no"?>
<!-- Created with Inkscape (http://www.inkscape.org/) -->

<svg
   width="32"
   height="32"
   viewBox="0 0 8.4666664 8.4666667"
   version="1.1"
   id="svg1"
   xml:space="preserve"
   inkscape:version="1.4.2 (f4327f4, 2025-05-13)"
   sodipodi:docname="tab_favicon.svg"
   xmlns:inkscape="http://www.inkscape.org/namespaces/inkscape"
   xmlns:sodipodi="http://sodipodi.sourceforge.net/DTD/sodipodi-0.dtd"
   xmlns:xlink="http://www.w3.org/1999/xlink"
   xmlns="http://www.w3.org/2000/svg"
   xmlns:svg="http://www.w3.org/2000/svg"><sodipodi:namedview
     id="namedview1"
     pagecolor="#ffffff"
     bordercolor="#000000"
     borderopacity="0.25"
     inkscape:showpageshadow="2"
     inkscape:pageopacity="0.0"
     inkscape:pagecheckerboard="0"
     inkscape:deskcolor="#d1d1d1"
     inkscape:document-units="mm"
     inkscape:zoom="17.154204"
     inkscape:cx="14.515392"
     inkscape:cy="15.302371"
     inkscape:window-width="1920"
     inkscape:window-height="1009"
     inkscape:window-x="-8"
     inkscape:window-y="-8"
     inkscape:window-maximized="1"
     inkscape:current-layer="svg1"
     inkscape:clip-to-page="true"
     showgrid="false" /><defs
     id="defs1"><linearGradient
       id="linearGradient4"
       inkscape:collect="always"><stop
         style="stop-color:#ffffff;stop-opacity:1;"
         offset="0"
         id="stop4" /><stop
         style="stop-color:#ffffff;stop-opacity:1;"
         offset="1"
         id="stop5" /></linearGradient><linearGradient
       id="linearGradient1"
       inkscape:collect="always"><stop
         style="stop-color:#4e34c8;stop-opacity:1;"
         offset="0.26165804"
         id="stop1" /><stop
         style="stop-color:#f900f4;stop-opacity:1;"
         offset="0.65025908"
         id="stop2" /></linearGradient><linearGradient
       inkscape:collect="always"
       xlink:href="#linearGradient1"
       id="linearGradient2"
       x1="5.0234361"
       y1="7.4517198"
       x2="3.6657054"
       y2="1.0640985"
       gradientUnits="userSpaceOnUse"
       gradientTransform="translate(0,0.01542382)" /><linearGradient
       inkscape:collect="always"
       xlink:href="#linearGradient4"
       id="linearGradient5"
       x1="0.4177489"
       y1="6.0585452"
       x2="2.7303567"
       y2="6.0585452"
       gradientUnits="userSpaceOnUse"
       gradientTransform="translate(0.13881437)" /></defs><g
     inkscape:label="Layer 1"
     inkscape:groupmode="layer"
     id="layer1"><rect
       style="font-variation-settings:normal;opacity:1;vector-effect:none;fill:#000000;fill-opacity:1;fill-rule:evenodd;stroke-width:1;stroke-linecap:butt;stroke-linejoin:miter;stroke-miterlimit:4;stroke-dasharray:none;stroke-dashoffset:0;stroke-opacity:1;-inkscape-stroke:none;stop-color:#000000;stop-opacity:1"
       id="rect1"
       width="8.5139475"
       height="8.4985247"
       x="-0.015423818"
       y="-0.030847635"
       sodipodi:insensitive="true" /><text
       xml:space="preserve"
       style="font-style:italic;font-stretch:condensed;font-size:5.01948px;line-height:0.9;font-family:Arial;-inkscape-font-specification:'Arial Italic Condensed';text-align:end;letter-spacing:0.150584px;writing-mode:lr-tb;direction:ltr;text-anchor:end;fill:url(#linearGradient2);fill-opacity:1;fill-rule:evenodd;stroke:#000000;stroke-width:2.01475;stroke-linecap:round;stroke-linejoin:round;stroke-dasharray:none"
       x="7.8401203"
       y="6.0698552"
       id="text1"><tspan
         sodipodi:role="line"
         id="tspan1"
         style="font-style:normal;font-variant:normal;font-weight:bold;font-stretch:normal;font-family:Arial;-inkscape-font-specification:'Arial Bold';fill:url(#linearGradient2);fill-opacity:1;stroke:none;stroke-width:2.01475;stroke-dasharray:none;stroke-opacity:1"
         x="7.9907041"
         y="6.0698552">DP</tspan></text></g><path
     style="opacity:1;fill:url(#linearGradient5);fill-opacity:1;fill-rule:nonzero;stroke:#ffffff;stroke-width:0.21007917;stroke-opacity:1;stroke-dasharray:none"
     d="m 2.7189891,7.447851 c 0.06248,-0.020086 0.1067546,-0.058529 0.133227,-0.1156791 l 0.016955,-0.036603 -0.00587,-1.2367403 -0.00587,-1.23674 -0.019168,-0.040994 C 2.80282,4.7053153 2.7303548,4.6595754 2.6470036,4.6603802 c -0.029194,2.771e-4 -0.05698,0.00491 -0.075401,0.012538 -0.030806,0.012778 -1.93037893,1.4990798 -1.96370473,1.5364844 -0.069318,0.077801 -0.068315,0.2010425 0.00228,0.2806812 0.011171,0.012606 0.036061,0.031544 0.055306,0.042085 l 0.034989,0.019167 0.53473363,7.708e-4 0.5347336,7.708e-4 0.037889,0.015066 c 0.021626,0.00861 0.051843,0.028153 0.070405,0.045567 0.017883,0.01677 0.163471,0.1952149 0.3235272,0.3965367 0.160056,0.2013219 0.3043339,0.3783452 0.3206176,0.3933853 0.051871,0.047908 0.1304935,0.065671 0.1966069,0.044416 z M 2.3464132,6.8573833 C 2.1821262,6.6512993 2.0317383,6.4688982 2.0110592,6.4506429 1.9904376,6.4324386 1.9496951,6.4059033 1.9205179,6.3916774 1.8245324,6.344875 1.8416038,6.3460126 1.2737892,6.3485998 c -0.50189573,0.00229 -0.50813003,0.00216 -0.49541243,-0.010376 0.020443,-0.020153 1.86222333,-1.4656006 1.86769163,-1.465781 0.00271,-8.93e-5 0.00747,0.53486 0.010576,1.1887764 0.00477,1.0050067 0.00425,1.1874593 -0.00336,1.1793744 -0.00495,-0.00525 -0.1430402,-0.1777034 -0.3068641,-0.3832067 z"
     id="path1" /></svg>
